<mxfile host="Electron" modified="2023-12-05T23:54:22.907Z" agent="Mozilla/5.0 (Windows NT 10.0; Win64; x64) AppleWebKit/537.36 (KHTML, like Gecko) draw.io/22.1.2 Chrome/114.0.5735.289 Electron/25.9.4 Safari/537.36" etag="TykSxMZRfi7rFs3hSKN8" version="22.1.2" type="device">
  <diagram id="C5RBs43oDa-KdzZeNtuy" name="Page-1">
    <mxGraphModel dx="508" dy="614" grid="1" gridSize="10" guides="1" tooltips="1" connect="1" arrows="1" fold="1" page="1" pageScale="1" pageWidth="827" pageHeight="1169" math="0" shadow="0">
      <root>
        <mxCell id="WIyWlLk6GJQsqaUBKTNV-0" />
        <mxCell id="WIyWlLk6GJQsqaUBKTNV-1" parent="WIyWlLk6GJQsqaUBKTNV-0" />
        <mxCell id="bdMgyzQtXY3F8ST8saqW-2" style="edgeStyle=orthogonalEdgeStyle;rounded=0;orthogonalLoop=1;jettySize=auto;html=1;exitX=0.5;exitY=1;exitDx=0;exitDy=0;entryX=0.5;entryY=0;entryDx=0;entryDy=0;" edge="1" parent="WIyWlLk6GJQsqaUBKTNV-1" source="bdMgyzQtXY3F8ST8saqW-0" target="bdMgyzQtXY3F8ST8saqW-1">
          <mxGeometry relative="1" as="geometry" />
        </mxCell>
        <mxCell id="bdMgyzQtXY3F8ST8saqW-0" value="Start" style="ellipse;whiteSpace=wrap;html=1;" vertex="1" parent="WIyWlLk6GJQsqaUBKTNV-1">
          <mxGeometry x="270" y="50" width="120" height="80" as="geometry" />
        </mxCell>
        <mxCell id="bdMgyzQtXY3F8ST8saqW-4" style="edgeStyle=orthogonalEdgeStyle;rounded=0;orthogonalLoop=1;jettySize=auto;html=1;exitX=0.5;exitY=1;exitDx=0;exitDy=0;" edge="1" parent="WIyWlLk6GJQsqaUBKTNV-1" source="bdMgyzQtXY3F8ST8saqW-1" target="bdMgyzQtXY3F8ST8saqW-3">
          <mxGeometry relative="1" as="geometry" />
        </mxCell>
        <mxCell id="bdMgyzQtXY3F8ST8saqW-1" value="int row&lt;br&gt;FILE* filePointer&lt;br&gt;char buffer[100]" style="rounded=0;whiteSpace=wrap;html=1;" vertex="1" parent="WIyWlLk6GJQsqaUBKTNV-1">
          <mxGeometry x="270" y="170" width="120" height="60" as="geometry" />
        </mxCell>
        <mxCell id="bdMgyzQtXY3F8ST8saqW-6" style="edgeStyle=orthogonalEdgeStyle;rounded=0;orthogonalLoop=1;jettySize=auto;html=1;exitX=0.5;exitY=1;exitDx=0;exitDy=0;entryX=0.5;entryY=0;entryDx=0;entryDy=0;" edge="1" parent="WIyWlLk6GJQsqaUBKTNV-1" source="bdMgyzQtXY3F8ST8saqW-3" target="bdMgyzQtXY3F8ST8saqW-5">
          <mxGeometry relative="1" as="geometry" />
        </mxCell>
        <mxCell id="bdMgyzQtXY3F8ST8saqW-3" value="open filePointer, dùng để ghi nội dung&lt;br&gt;scanf nội dung" style="rounded=0;whiteSpace=wrap;html=1;" vertex="1" parent="WIyWlLk6GJQsqaUBKTNV-1">
          <mxGeometry x="270" y="280" width="120" height="60" as="geometry" />
        </mxCell>
        <mxCell id="bdMgyzQtXY3F8ST8saqW-8" style="edgeStyle=orthogonalEdgeStyle;rounded=0;orthogonalLoop=1;jettySize=auto;html=1;exitX=0.5;exitY=1;exitDx=0;exitDy=0;" edge="1" parent="WIyWlLk6GJQsqaUBKTNV-1" source="bdMgyzQtXY3F8ST8saqW-5" target="bdMgyzQtXY3F8ST8saqW-7">
          <mxGeometry relative="1" as="geometry" />
        </mxCell>
        <mxCell id="bdMgyzQtXY3F8ST8saqW-5" value="So dong cua file la" style="shape=parallelogram;perimeter=parallelogramPerimeter;whiteSpace=wrap;html=1;fixedSize=1;" vertex="1" parent="WIyWlLk6GJQsqaUBKTNV-1">
          <mxGeometry x="270" y="380" width="120" height="60" as="geometry" />
        </mxCell>
        <mxCell id="bdMgyzQtXY3F8ST8saqW-11" style="edgeStyle=orthogonalEdgeStyle;rounded=0;orthogonalLoop=1;jettySize=auto;html=1;exitX=0.5;exitY=1;exitDx=0;exitDy=0;" edge="1" parent="WIyWlLk6GJQsqaUBKTNV-1" source="bdMgyzQtXY3F8ST8saqW-7" target="bdMgyzQtXY3F8ST8saqW-10">
          <mxGeometry relative="1" as="geometry" />
        </mxCell>
        <mxCell id="bdMgyzQtXY3F8ST8saqW-7" value="close file dạng viết&lt;br&gt;open filePointer, dùng dạng đọc r, cho máy đọc file vừa nhập" style="rounded=0;whiteSpace=wrap;html=1;" vertex="1" parent="WIyWlLk6GJQsqaUBKTNV-1">
          <mxGeometry x="270" y="480" width="120" height="60" as="geometry" />
        </mxCell>
        <mxCell id="bdMgyzQtXY3F8ST8saqW-13" style="edgeStyle=orthogonalEdgeStyle;rounded=0;orthogonalLoop=1;jettySize=auto;html=1;exitX=0.5;exitY=1;exitDx=0;exitDy=0;" edge="1" parent="WIyWlLk6GJQsqaUBKTNV-1" source="bdMgyzQtXY3F8ST8saqW-10" target="bdMgyzQtXY3F8ST8saqW-12">
          <mxGeometry relative="1" as="geometry" />
        </mxCell>
        <mxCell id="bdMgyzQtXY3F8ST8saqW-10" value="Nội dung của&amp;nbsp;&lt;br&gt;của file là:...." style="shape=parallelogram;perimeter=parallelogramPerimeter;whiteSpace=wrap;html=1;fixedSize=1;" vertex="1" parent="WIyWlLk6GJQsqaUBKTNV-1">
          <mxGeometry x="270" y="600" width="120" height="60" as="geometry" />
        </mxCell>
        <mxCell id="bdMgyzQtXY3F8ST8saqW-12" value="END" style="ellipse;whiteSpace=wrap;html=1;" vertex="1" parent="WIyWlLk6GJQsqaUBKTNV-1">
          <mxGeometry x="270" y="700" width="120" height="80" as="geometry" />
        </mxCell>
      </root>
    </mxGraphModel>
  </diagram>
</mxfile>
